<mxfile host="app.diagrams.net" modified="2024-05-22T04:08:53.027Z" agent="Mozilla/5.0 (Macintosh; Intel Mac OS X 10_15_7) AppleWebKit/605.1.15 (KHTML, like Gecko) Version/16.6 Safari/605.1.15" etag="ZCV40pZNmyAIwzX_5CfK" version="24.4.4" type="device">
  <diagram name="Страница — 1" id="LuKh3QWx9CXBSMX80hwb">
    <mxGraphModel dx="1654" dy="1943" grid="1" gridSize="10" guides="1" tooltips="1" connect="1" arrows="1" fold="1" page="1" pageScale="1" pageWidth="827" pageHeight="1169" math="0" shadow="0">
      <root>
        <mxCell id="0" />
        <mxCell id="1" parent="0" />
        <mxCell id="hP-zX-DP1DpRntlCJXT4-3" value="" style="edgeStyle=orthogonalEdgeStyle;rounded=0;orthogonalLoop=1;jettySize=auto;html=1;" parent="1" source="hP-zX-DP1DpRntlCJXT4-4" target="hP-zX-DP1DpRntlCJXT4-9" edge="1">
          <mxGeometry relative="1" as="geometry" />
        </mxCell>
        <mxCell id="hP-zX-DP1DpRntlCJXT4-4" value="string[] array&lt;br&gt;int maxLength&lt;br&gt;int count = 0" style="rounded=1;whiteSpace=wrap;html=1;fontSize=12;glass=0;strokeWidth=1;shadow=0;" parent="1" vertex="1">
          <mxGeometry x="140.51999999999998" y="-960" width="168.75" height="50" as="geometry" />
        </mxCell>
        <mxCell id="hP-zX-DP1DpRntlCJXT4-5" value="" style="edgeStyle=orthogonalEdgeStyle;rounded=0;orthogonalLoop=1;jettySize=auto;html=1;" parent="1" source="hP-zX-DP1DpRntlCJXT4-6" target="hP-zX-DP1DpRntlCJXT4-4" edge="1">
          <mxGeometry relative="1" as="geometry" />
        </mxCell>
        <mxCell id="hP-zX-DP1DpRntlCJXT4-6" value="Start" style="ellipse;whiteSpace=wrap;html=1;" parent="1" vertex="1">
          <mxGeometry x="164.89" y="-1099" width="120" height="80" as="geometry" />
        </mxCell>
        <mxCell id="hP-zX-DP1DpRntlCJXT4-7" value="" style="edgeStyle=orthogonalEdgeStyle;rounded=0;orthogonalLoop=1;jettySize=auto;html=1;exitX=1;exitY=0.5;exitDx=0;exitDy=0;entryX=0.5;entryY=1;entryDx=0;entryDy=0;" parent="1" source="hP-zX-DP1DpRntlCJXT4-9" target="hP-zX-DP1DpRntlCJXT4-22" edge="1">
          <mxGeometry relative="1" as="geometry">
            <mxPoint x="170" y="-860" as="sourcePoint" />
            <Array as="points">
              <mxPoint x="375" y="-990" />
              <mxPoint x="590" y="-990" />
            </Array>
          </mxGeometry>
        </mxCell>
        <mxCell id="hP-zX-DP1DpRntlCJXT4-8" value="No" style="edgeLabel;html=1;align=center;verticalAlign=middle;resizable=0;points=[];" parent="hP-zX-DP1DpRntlCJXT4-7" vertex="1" connectable="0">
          <mxGeometry x="-0.1235" relative="1" as="geometry">
            <mxPoint x="75" as="offset" />
          </mxGeometry>
        </mxCell>
        <mxCell id="hP-zX-DP1DpRntlCJXT4-9" value="&lt;div&gt;i = 0&lt;/div&gt;&lt;div&gt;if (i &amp;lt;= array.Lenght)&amp;nbsp;&lt;/div&gt;" style="rhombus;whiteSpace=wrap;html=1;" parent="1" vertex="1">
          <mxGeometry x="74.89" y="-840" width="300" height="80" as="geometry" />
        </mxCell>
        <mxCell id="hP-zX-DP1DpRntlCJXT4-10" value="" style="edgeStyle=orthogonalEdgeStyle;rounded=0;orthogonalLoop=1;jettySize=auto;html=1;exitX=0.5;exitY=1;exitDx=0;exitDy=0;" parent="1" source="hP-zX-DP1DpRntlCJXT4-14" target="hP-zX-DP1DpRntlCJXT4-18" edge="1">
          <mxGeometry relative="1" as="geometry">
            <Array as="points">
              <mxPoint x="225" y="-460" />
            </Array>
          </mxGeometry>
        </mxCell>
        <mxCell id="hP-zX-DP1DpRntlCJXT4-11" value="Yes" style="edgeLabel;html=1;align=center;verticalAlign=middle;resizable=0;points=[];" parent="hP-zX-DP1DpRntlCJXT4-10" vertex="1" connectable="0">
          <mxGeometry x="-0.1143" relative="1" as="geometry">
            <mxPoint y="20" as="offset" />
          </mxGeometry>
        </mxCell>
        <mxCell id="hP-zX-DP1DpRntlCJXT4-36" style="edgeStyle=orthogonalEdgeStyle;rounded=0;orthogonalLoop=1;jettySize=auto;html=1;entryX=0.5;entryY=1;entryDx=0;entryDy=0;exitX=0;exitY=0.5;exitDx=0;exitDy=0;" parent="1" source="hP-zX-DP1DpRntlCJXT4-14" target="hP-zX-DP1DpRntlCJXT4-20" edge="1">
          <mxGeometry relative="1" as="geometry">
            <Array as="points">
              <mxPoint x="57" y="-560" />
              <mxPoint x="57" y="-780" />
            </Array>
          </mxGeometry>
        </mxCell>
        <mxCell id="hP-zX-DP1DpRntlCJXT4-37" value="No" style="edgeLabel;html=1;align=center;verticalAlign=middle;resizable=0;points=[];" parent="hP-zX-DP1DpRntlCJXT4-36" vertex="1" connectable="0">
          <mxGeometry x="0.147" y="2" relative="1" as="geometry">
            <mxPoint as="offset" />
          </mxGeometry>
        </mxCell>
        <mxCell id="hP-zX-DP1DpRntlCJXT4-14" value="if (str.Length &amp;lt;= maxLength)" style="rhombus;whiteSpace=wrap;html=1;" parent="1" vertex="1">
          <mxGeometry x="74.89" y="-600" width="300" height="80" as="geometry" />
        </mxCell>
        <mxCell id="hP-zX-DP1DpRntlCJXT4-15" value="" style="endArrow=classic;html=1;rounded=0;exitX=0.5;exitY=1;exitDx=0;exitDy=0;entryX=0.5;entryY=0;entryDx=0;entryDy=0;" parent="1" source="hP-zX-DP1DpRntlCJXT4-9" target="hP-zX-DP1DpRntlCJXT4-14" edge="1">
          <mxGeometry relative="1" as="geometry">
            <mxPoint x="290.39" y="-770" as="sourcePoint" />
            <mxPoint x="390.39" y="-770" as="targetPoint" />
          </mxGeometry>
        </mxCell>
        <mxCell id="hP-zX-DP1DpRntlCJXT4-16" value="Yes" style="edgeLabel;resizable=0;html=1;align=center;verticalAlign=middle;" parent="hP-zX-DP1DpRntlCJXT4-15" connectable="0" vertex="1">
          <mxGeometry relative="1" as="geometry" />
        </mxCell>
        <mxCell id="hP-zX-DP1DpRntlCJXT4-17" style="edgeStyle=orthogonalEdgeStyle;rounded=0;orthogonalLoop=1;jettySize=auto;html=1;entryX=0;entryY=0.5;entryDx=0;entryDy=0;exitX=0;exitY=0.5;exitDx=0;exitDy=0;" parent="1" source="hP-zX-DP1DpRntlCJXT4-18" target="hP-zX-DP1DpRntlCJXT4-9" edge="1">
          <mxGeometry relative="1" as="geometry">
            <mxPoint x="149.89" y="-599.4535319010416" as="sourcePoint" />
            <Array as="points">
              <mxPoint x="20" y="-650" />
              <mxPoint x="20" y="-880" />
            </Array>
          </mxGeometry>
        </mxCell>
        <mxCell id="hP-zX-DP1DpRntlCJXT4-18" value="count++&lt;br&gt;i++" style="whiteSpace=wrap;html=1;" parent="1" vertex="1">
          <mxGeometry x="20.519999999999982" y="-480" width="120" height="60" as="geometry" />
        </mxCell>
        <mxCell id="a7CUTJYNGsL5CmLgCOvP-2" value="" style="edgeStyle=orthogonalEdgeStyle;rounded=0;orthogonalLoop=1;jettySize=auto;html=1;entryX=0;entryY=0.5;entryDx=0;entryDy=0;" edge="1" parent="1" source="hP-zX-DP1DpRntlCJXT4-20" target="hP-zX-DP1DpRntlCJXT4-9">
          <mxGeometry relative="1" as="geometry" />
        </mxCell>
        <mxCell id="hP-zX-DP1DpRntlCJXT4-20" value="i++" style="whiteSpace=wrap;html=1;" parent="1" vertex="1">
          <mxGeometry x="39.89" y="-780" width="35" height="40" as="geometry" />
        </mxCell>
        <mxCell id="hP-zX-DP1DpRntlCJXT4-21" value="" style="edgeStyle=orthogonalEdgeStyle;rounded=0;orthogonalLoop=1;jettySize=auto;html=1;" parent="1" source="hP-zX-DP1DpRntlCJXT4-22" target="hP-zX-DP1DpRntlCJXT4-25" edge="1">
          <mxGeometry relative="1" as="geometry" />
        </mxCell>
        <mxCell id="hP-zX-DP1DpRntlCJXT4-22" value="&lt;div&gt;string[] result = new string[count];&lt;/div&gt;&lt;div&gt;int index = 0;&lt;/div&gt;&lt;div&gt;i = 0&lt;br&gt;&lt;/div&gt;" style="whiteSpace=wrap;html=1;" parent="1" vertex="1">
          <mxGeometry x="439.89" y="-930" width="300" height="60" as="geometry" />
        </mxCell>
        <mxCell id="hP-zX-DP1DpRntlCJXT4-23" value="" style="edgeStyle=orthogonalEdgeStyle;rounded=0;orthogonalLoop=1;jettySize=auto;html=1;" parent="1" source="hP-zX-DP1DpRntlCJXT4-25" target="hP-zX-DP1DpRntlCJXT4-32" edge="1">
          <mxGeometry relative="1" as="geometry" />
        </mxCell>
        <mxCell id="hP-zX-DP1DpRntlCJXT4-24" style="edgeStyle=orthogonalEdgeStyle;rounded=0;orthogonalLoop=1;jettySize=auto;html=1;entryX=0;entryY=0.5;entryDx=0;entryDy=0;" parent="1" source="hP-zX-DP1DpRntlCJXT4-25" target="hP-zX-DP1DpRntlCJXT4-35" edge="1">
          <mxGeometry relative="1" as="geometry" />
        </mxCell>
        <mxCell id="hP-zX-DP1DpRntlCJXT4-25" value="&lt;div&gt;&lt;span style=&quot;background-color: initial;&quot;&gt;if (i &amp;lt;= array.Lenght)&amp;nbsp;&lt;/span&gt;&lt;br&gt;&lt;/div&gt;" style="rhombus;whiteSpace=wrap;html=1;" parent="1" vertex="1">
          <mxGeometry x="439.89" y="-820" width="300" height="80" as="geometry" />
        </mxCell>
        <mxCell id="hP-zX-DP1DpRntlCJXT4-26" style="edgeStyle=orthogonalEdgeStyle;rounded=0;orthogonalLoop=1;jettySize=auto;html=1;entryX=0;entryY=0.5;entryDx=0;entryDy=0;" parent="1" source="hP-zX-DP1DpRntlCJXT4-27" target="hP-zX-DP1DpRntlCJXT4-25" edge="1">
          <mxGeometry relative="1" as="geometry">
            <Array as="points">
              <mxPoint x="400" y="-500" />
              <mxPoint x="400" y="-780" />
            </Array>
          </mxGeometry>
        </mxCell>
        <mxCell id="hP-zX-DP1DpRntlCJXT4-27" value="&lt;div&gt;result[index] = str&lt;/div&gt;&lt;div&gt;&lt;span style=&quot;background-color: initial;&quot;&gt;index++&lt;/span&gt;&lt;/div&gt;&lt;div&gt;&lt;span style=&quot;background-color: initial;&quot;&gt;i++&lt;/span&gt;&lt;/div&gt;" style="whiteSpace=wrap;html=1;" parent="1" vertex="1">
          <mxGeometry x="529.89" y="-530" width="120" height="60" as="geometry" />
        </mxCell>
        <mxCell id="hP-zX-DP1DpRntlCJXT4-28" value="" style="edgeStyle=orthogonalEdgeStyle;rounded=0;orthogonalLoop=1;jettySize=auto;html=1;" parent="1" source="hP-zX-DP1DpRntlCJXT4-32" target="hP-zX-DP1DpRntlCJXT4-27" edge="1">
          <mxGeometry relative="1" as="geometry" />
        </mxCell>
        <mxCell id="hP-zX-DP1DpRntlCJXT4-29" value="Yes" style="edgeLabel;html=1;align=center;verticalAlign=middle;resizable=0;points=[];" parent="hP-zX-DP1DpRntlCJXT4-28" vertex="1" connectable="0">
          <mxGeometry x="-0.1478" y="-2" relative="1" as="geometry">
            <mxPoint as="offset" />
          </mxGeometry>
        </mxCell>
        <mxCell id="hP-zX-DP1DpRntlCJXT4-38" style="edgeStyle=orthogonalEdgeStyle;rounded=0;orthogonalLoop=1;jettySize=auto;html=1;entryX=0.5;entryY=1;entryDx=0;entryDy=0;" parent="1" source="hP-zX-DP1DpRntlCJXT4-32" target="hP-zX-DP1DpRntlCJXT4-34" edge="1">
          <mxGeometry relative="1" as="geometry">
            <Array as="points">
              <mxPoint x="422" y="-630" />
            </Array>
          </mxGeometry>
        </mxCell>
        <mxCell id="hP-zX-DP1DpRntlCJXT4-39" value="No" style="edgeLabel;html=1;align=center;verticalAlign=middle;resizable=0;points=[];" parent="hP-zX-DP1DpRntlCJXT4-38" vertex="1" connectable="0">
          <mxGeometry x="0.0584" y="2" relative="1" as="geometry">
            <mxPoint y="1" as="offset" />
          </mxGeometry>
        </mxCell>
        <mxCell id="hP-zX-DP1DpRntlCJXT4-32" value="&lt;div&gt;if (str.Length &amp;lt;= maxLength)&lt;br&gt;&lt;/div&gt;" style="rhombus;whiteSpace=wrap;html=1;" parent="1" vertex="1">
          <mxGeometry x="439.89" y="-670" width="300" height="80" as="geometry" />
        </mxCell>
        <mxCell id="hP-zX-DP1DpRntlCJXT4-33" style="edgeStyle=orthogonalEdgeStyle;rounded=0;orthogonalLoop=1;jettySize=auto;html=1;entryX=0;entryY=0.5;entryDx=0;entryDy=0;" parent="1" source="hP-zX-DP1DpRntlCJXT4-34" target="hP-zX-DP1DpRntlCJXT4-25" edge="1">
          <mxGeometry relative="1" as="geometry">
            <Array as="points">
              <mxPoint x="420" y="-780" />
            </Array>
          </mxGeometry>
        </mxCell>
        <mxCell id="hP-zX-DP1DpRntlCJXT4-34" value="i++" style="whiteSpace=wrap;html=1;" parent="1" vertex="1">
          <mxGeometry x="404.89" y="-720" width="35" height="40" as="geometry" />
        </mxCell>
        <mxCell id="hP-zX-DP1DpRntlCJXT4-35" value="return result[];" style="rounded=1;whiteSpace=wrap;html=1;" parent="1" vertex="1">
          <mxGeometry x="760" y="-810" width="60" height="60" as="geometry" />
        </mxCell>
      </root>
    </mxGraphModel>
  </diagram>
</mxfile>
